<svg xmlns="http://www.w3.org/2000/svg" xmlns:v="https://svgstorm.com"
viewBox = "0 0 1000 1000"
width="1000"
height="1000">
<g fill="None" fill-opacity="0.0" stroke="#FEFEFE" stroke-opacity="1.00" stroke-width="0.3"><path d="
M 0.00 1000.00 
L 1000.00 1000.00
L 1000.00 0.00
L 0.00 0.00
L 0.00 1000.00
M 639.00 113.00 
C 662.33 118.22 684.53 131.99 686.00 159.00
C 692.09 196.52 684.97 238.75 688.00 277.00
C 688.98 289.39 688.25 302.58 688.00 315.00 C 687.75 327.42 689.64 340.71 688.00 353.00
C 682.63 393.26 687.41 434.67 686.00 476.00 C 684.59 517.33 687.30 560.54 686.00 602.00 C 684.70 643.46 688.07 685.65 686.00 727.00 C 683.93 768.35 691.05 810.73 684.07 851.07 C 677.10 891.42 625.70 888.00 595.00 888.00
C 582.33 888.00 569.67 888.00 557.00 888.00
C 545.33 888.00 533.67 888.00 522.00 888.00
C 507.67 888.00 493.33 888.00 479.00 888.00
C 448.00 888.00 417.00 888.00 386.00 888.00
C 379.13 888.00 371.83 888.72 365.00 888.00
C 363.35 887.83 362.51 887.35 361.00 887.00
C 351.34 884.74 343.33 882.95 335.00 877.00
C 331.64 874.60 328.42 871.25 326.00 868.00
C 313.13 850.70 314.77 832.84 315.00 811.00 C 315.23 789.16 314.95 765.39 315.00 743.00 C 315.05 720.61 315.10 696.61 315.00 674.00 C 314.90 651.39 315.33 628.69 315.00 606.00 C 314.67 583.31 315.76 559.68 315.00 537.00 C 314.24 514.32 316.73 491.55 315.00 469.00 C 313.27 446.45 318.78 422.24 315.00 400.00
C 314.00 400.00 313.00 400.00 312.00 400.00
C 312.00 396.67 312.00 393.33 312.00 390.00
C 312.00 376.67 312.00 363.33 312.00 350.00
C 312.00 348.81 311.70 347.15 312.00 346.00
C 312.12 345.55 313.99 342.16 315.00 344.00
C 315.79 340.31 315.63 333.73 315.00 330.00
C 313.13 324.31 309.72 313.49 312.00 305.00 C 314.28 296.51 308.46 283.97 312.00 276.00
C 310.51 274.69 314.58 273.23 315.00 274.00
C 317.03 264.47 316.32 248.68 315.00 239.00
C 314.27 236.71 311.08 235.27 312.00 231.00 C 312.92 226.73 312.29 223.24 312.00 219.00 C 311.71 214.76 312.92 212.10 314.00 209.00
C 317.48 182.97 309.39 154.34 326.00 132.00
C 328.46 128.70 331.70 125.36 335.00 123.00
C 336.55 121.90 338.40 121.04 340.00 120.00
C 347.73 115.01 355.82 112.73 365.00 112.00
C 372.23 111.43 379.74 112.00 387.00 112.00
C 394.33 112.00 401.67 112.00 409.00 112.00
C 458.00 112.00 507.00 112.00 556.00 112.00
C 569.00 112.00 582.00 112.00 595.00 112.00
C 602.67 112.00 610.33 112.00 618.00 112.00
C 623.93 112.00 630.10 111.49 636.00 112.00
C 637.35 112.12 638.20 112.82 639.00 113.00 Z"/>
</g>
<g fill="None" fill-opacity="0.0" stroke="#6A6A6A" stroke-opacity="1.00" stroke-width="0.3"><path d="
M 340.00 120.00 
C 344.11 118.95 351.48 116.92 359.00 115.00 C 366.52 113.09 377.36 114.22 386.00 114.00 C 394.64 113.78 404.99 114.09 414.00 114.00 C 423.01 113.91 432.84 114.04 442.00 114.00 C 451.16 113.96 460.79 114.00 470.00 114.00
C 450.63 112.13 428.30 113.87 409.00 112.00
C 401.67 112.00 394.33 112.00 387.00 112.00
C 380.20 112.66 371.63 112.12 365.00 112.00
C 355.82 112.73 347.73 115.01 340.00 120.00 Z"/>
</g>
<g fill="None" fill-opacity="0.0" stroke="#2D2D2D" stroke-opacity="1.00" stroke-width="0.3"><path d="
M 387.00 112.00 
C 379.74 112.00 372.23 111.43 365.00 112.00
C 371.63 112.12 380.20 112.66 387.00 112.00 Z"/>
</g>
<g fill="None" fill-opacity="0.0" stroke="#898989" stroke-opacity="1.00" stroke-width="0.3"><path d="
M 470.00 114.00 
C 487.00 114.00 504.00 114.00 521.00 114.00
C 538.00 114.00 555.00 114.00 572.00 114.00
C 571.96 114.00 572.00 113.00 572.00 113.00
C 566.61 113.00 560.64 112.45 556.00 112.00
C 507.00 112.00 458.00 112.00 409.00 112.00
C 428.30 113.87 450.63 112.13 470.00 114.00 Z"/>
</g>
<g fill="None" fill-opacity="0.0" stroke="#646464" stroke-opacity="1.00" stroke-width="0.3"><path d="
M 572.00 113.00 
C 579.67 113.00 587.33 113.00 595.00 113.00
C 594.96 113.00 595.00 112.00 595.00 112.00
C 582.00 112.00 569.00 112.00 556.00 112.00
C 560.64 112.45 566.61 113.00 572.00 113.00 Z"/>
</g>
<g fill="None" fill-opacity="0.0" stroke="#3C3C3C" stroke-opacity="1.00" stroke-width="0.3"><path d="
M 595.00 113.00 
C 602.67 113.00 610.33 113.00 618.00 113.00
C 617.96 113.00 618.00 112.00 618.00 112.00
C 610.33 112.00 602.67 112.00 595.00 112.00
C 595.00 112.00 594.96 113.00 595.00 113.00 Z"/>
</g>
<g fill="None" fill-opacity="0.0" stroke="#111111" stroke-opacity="1.00" stroke-width="0.3"><path d="
M 618.00 113.00 
C 623.20 113.00 628.84 113.63 634.00 113.00
C 635.10 112.86 635.38 112.15 636.00 112.00
C 630.10 111.49 623.93 112.00 618.00 112.00
C 618.00 112.00 617.96 113.00 618.00 113.00 Z"/>
</g>
<g fill="None" fill-opacity="0.0" stroke="#4A4A4A" stroke-opacity="1.00" stroke-width="0.3"><path d="
M 634.00 113.00 
C 634.85 113.15 636.64 113.82 638.00 114.00
C 638.26 113.87 638.65 113.08 639.00 113.00
C 638.20 112.82 637.35 112.12 636.00 112.00
C 635.38 112.15 635.10 112.86 634.00 113.00 Z"/>
</g>
<g fill="None" fill-opacity="0.0" stroke="#A1A1A1" stroke-opacity="1.00" stroke-width="0.3"><path d="
M 572.00 114.00 
C 588.63 114.00 605.39 113.37 622.00 114.00
C 628.47 114.25 635.65 115.91 641.67 117.33 C 647.69 118.74 652.38 121.85 657.75 124.25 C 663.11 126.66 665.89 131.27 670.75 134.25 C 675.61 137.23 675.95 146.52 680.00 149.00
C 679.99 148.87 681.01 148.33 681.00 148.00
C 675.78 129.02 656.65 116.53 638.00 114.00
C 636.64 113.82 634.85 113.15 634.00 113.00
C 628.84 113.63 623.20 113.00 618.00 113.00
C 610.33 113.00 602.67 113.00 595.00 113.00
C 587.33 113.00 579.67 113.00 572.00 113.00
C 572.00 113.00 571.96 114.00 572.00 114.00 Z"/>
</g>
<g fill="None" fill-opacity="0.0" stroke="#030303" stroke-opacity="1.00" stroke-width="0.3"><path d="
M 638.00 114.00 
C 656.65 116.53 675.78 129.02 681.00 148.00
C 681.25 148.90 682.79 150.46 682.00 152.00
C 680.99 151.45 680.56 150.02 680.00 149.00
C 675.95 146.52 675.61 137.23 670.75 134.25 C 665.89 131.27 663.11 126.66 657.75 124.25 C 652.38 121.85 647.69 118.74 641.67 117.33 C 635.65 115.91 628.47 114.25 622.00 114.00
C 589.84 115.89 553.04 117.10 521.00 114.00
C 504.00 114.00 487.00 114.00 470.00 114.00
C 460.79 114.00 451.16 113.96 442.00 114.00 C 432.84 114.04 423.01 113.91 414.00 114.00 C 404.99 114.09 394.64 113.78 386.00 114.00 C 377.36 114.22 366.52 113.09 359.00 115.00 C 351.48 116.92 344.11 118.95 340.00 120.00
C 338.40 121.04 336.55 121.90 335.00 123.00
C 332.19 125.35 328.37 129.28 326.00 132.00
C 309.39 154.34 317.48 182.97 314.00 209.00
C 312.89 217.31 313.95 231.31 315.00 239.00
C 316.32 248.68 317.03 264.47 315.00 274.00
C 314.88 274.55 314.25 275.50 314.00 276.00
C 310.31 283.33 316.81 294.53 315.00 303.00 C 313.19 311.47 313.71 322.41 315.00 330.00
C 315.63 333.73 315.79 340.31 315.00 344.00
C 314.88 344.55 314.25 345.50 314.00 346.00
C 310.35 353.24 316.43 364.49 315.00 373.00 C 313.57 381.51 313.72 392.46 315.00 400.00
C 318.78 422.24 313.27 446.45 315.00 469.00 C 316.73 491.55 314.24 514.32 315.00 537.00 C 315.76 559.68 314.67 583.31 315.00 606.00 C 315.33 628.69 314.90 651.39 315.00 674.00 C 315.10 696.61 315.05 720.61 315.00 743.00 C 314.95 765.39 315.23 789.16 315.00 811.00 C 314.77 832.84 313.13 850.70 326.00 868.00
C 328.41 870.77 332.25 874.69 335.00 877.00
C 343.33 882.95 351.34 884.74 361.00 887.00
C 368.12 886.79 376.06 885.54 384.00 886.00 C 391.94 886.46 401.00 885.93 409.00 886.00 C 417.00 886.07 425.06 886.31 433.00 886.00 C 440.94 885.69 450.26 886.84 458.00 886.00 C 465.74 885.16 475.46 887.09 479.00 888.00
C 493.33 888.00 507.67 888.00 522.00 888.00
C 525.42 887.12 535.26 885.09 543.00 886.00 C 550.74 886.91 560.03 885.54 568.00 886.00 C 575.97 886.46 585.04 885.69 593.00 886.00 C 600.96 886.31 610.30 885.64 618.00 886.00 C 625.70 886.36 633.37 884.81 640.02 883.02 C 646.68 881.24 652.26 879.16 657.75 875.75 C 663.23 872.33 667.49 869.66 671.75 864.75 C 676.01 859.84 678.99 854.06 681.00 848.00
C 679.27 862.81 669.47 875.04 653.77 881.77 C 638.07 888.51 613.06 887.09 595.00 887.00
C 595.04 887.00 595.00 888.00 595.00 888.00
C 625.70 888.00 677.10 891.42 684.07 851.07 C 691.05 810.73 683.93 768.35 686.00 727.00 C 688.07 685.65 684.70 643.46 686.00 602.00 C 687.30 560.54 684.59 517.33 686.00 476.00 C 687.41 434.67 682.63 393.26 688.00 353.00
C 687.44 341.00 685.45 327.18 686.00 314.00 C 686.55 300.82 686.85 286.49 686.00 274.00
C 683.40 235.84 688.07 197.20 686.00 159.00
C 684.53 131.99 662.33 118.22 639.00 113.00
C 638.65 113.08 638.26 113.87 638.00 114.00
M 661.00 131.00 
C 663.35 132.75 665.24 134.77 667.00 137.00
C 672.71 144.24 677.37 152.71 678.00 162.00
C 683.47 192.51 677.24 225.27 679.00 257.00 C 680.76 288.73 678.27 321.96 679.00 354.00 C 679.73 386.04 678.80 418.83 679.00 451.00 C 679.20 483.17 679.21 515.82 679.00 548.00 C 678.79 580.18 679.75 612.91 679.00 645.00 C 678.25 677.09 680.79 710.16 679.00 742.00 C 677.21 773.84 683.48 807.40 678.00 838.00
C 677.37 847.25 672.69 855.79 667.00 863.00
C 665.19 865.29 663.30 867.29 661.00 869.00
C 636.71 887.06 604.81 878.59 575.00 880.00 C 545.19 881.41 507.84 879.20 478.00 880.00 C 448.16 880.80 409.20 879.27 381.00 880.00 C 352.80 880.73 327.68 870.11 323.67 840.33 C 319.67 810.54 324.36 774.30 323.00 743.00 C 321.64 711.70 323.57 677.83 323.00 646.00 C 322.43 614.17 323.15 581.04 323.00 549.00 C 322.85 516.96 322.83 484.04 323.00 452.00 C 323.17 419.96 322.39 386.85 323.00 355.00 C 323.61 323.15 321.57 288.24 323.00 257.00 C 324.43 225.76 319.61 189.99 323.33 160.33 C 327.05 130.67 351.89 119.41 380.00 120.00 C 408.11 120.59 447.17 119.24 477.00 120.00 C 506.83 120.76 544.11 118.57 574.00 120.00 C 603.89 121.43 636.59 112.85 661.00 131.00
M 683.00 153.00 
C 686.11 159.85 680.60 158.22 683.00 153.00
M 684.00 840.00 
C 684.09 842.45 684.23 845.60 682.00 847.00
C 682.40 844.70 682.46 841.63 684.00 840.00 Z"/>
</g>
<g fill="None" fill-opacity="0.0" stroke="#292929" stroke-opacity="1.00" stroke-width="0.3"><path d="
M 622.00 114.00 
C 605.39 113.37 588.63 114.00 572.00 114.00
C 555.00 114.00 538.00 114.00 521.00 114.00
C 553.04 117.10 589.84 115.89 622.00 114.00 Z"/>
</g>
<g fill="None" fill-opacity="0.0" stroke="#FEFEFE" stroke-opacity="1.00" stroke-width="0.3"><path d="
M 661.00 869.00 
C 662.85 867.39 665.37 864.76 667.00 863.00
C 672.69 855.79 677.37 847.25 678.00 838.00
C 681.81 781.97 676.57 725.17 678.00 669.00 C 679.43 612.83 678.00 556.21 678.00 500.00 C 678.00 443.79 679.43 387.17 678.00 331.00 C 676.57 274.83 681.81 218.03 678.00 162.00
C 677.37 152.71 672.71 144.24 667.00 137.00
C 665.32 135.19 662.80 132.57 661.00 131.00
C 636.59 112.85 603.89 121.43 574.00 120.00 C 544.11 118.57 506.83 120.76 477.00 120.00 C 447.17 119.24 408.11 120.59 380.00 120.00 C 351.89 119.41 327.05 130.67 323.33 160.33 C 319.61 189.99 324.43 225.76 323.00 257.00 C 321.57 288.24 323.61 323.15 323.00 355.00 C 322.39 386.85 323.17 419.96 323.00 452.00 C 322.83 484.04 322.85 516.96 323.00 549.00 C 323.15 581.04 322.43 614.17 323.00 646.00 C 323.57 677.83 321.64 711.70 323.00 743.00 C 324.36 774.30 319.67 810.54 323.67 840.33 C 327.68 870.11 352.80 880.73 381.00 880.00 C 409.20 879.27 448.16 880.80 478.00 880.00 C 507.84 879.20 545.19 881.41 575.00 880.00 C 604.81 878.59 636.71 887.06 661.00 869.00
M 537.00 128.00 
C 550.16 131.26 550.12 153.98 535.98 154.98 C 521.83 155.97 501.34 154.20 488.00 155.00 C 474.66 155.80 452.04 157.92 453.00 141.00 C 453.97 124.08 475.07 126.80 488.00 128.00 C 500.93 129.20 523.81 124.73 537.00 128.00 Z"/>
</g>
<g fill="None" fill-opacity="0.0" stroke="#868686" stroke-opacity="1.00" stroke-width="0.3"><path d="
M 326.00 132.00 
C 328.37 129.28 332.19 125.35 335.00 123.00
C 331.70 125.36 328.46 128.70 326.00 132.00 Z"/>
</g>
<g fill="None" fill-opacity="0.0" stroke="#000000" stroke-opacity="1.00" stroke-width="0.3"><path d="
M 537.00 128.00 
C 523.81 124.73 500.93 129.20 488.00 128.00 C 475.07 126.80 453.97 124.08 453.00 141.00 C 452.04 157.92 474.66 155.80 488.00 155.00 C 501.34 154.20 521.83 155.97 535.98 154.98 C 550.12 153.98 550.16 131.26 537.00 128.00
M 532.00 143.00 
C 533.48 142.26 532.46 139.44 535.00 140.00
C 536.75 146.30 529.42 149.82 525.00 146.00
C 524.24 143.18 526.68 145.69 527.00 144.00
C 527.07 143.99 527.00 143.00 527.00 143.00
C 527.00 142.50 526.87 141.46 527.00 141.00
C 528.46 135.78 534.33 139.69 532.00 143.00 Z"/>
</g>
<g fill="None" fill-opacity="0.0" stroke="#7E7E7E" stroke-opacity="1.00" stroke-width="0.3"><path d="
M 667.00 137.00 
C 665.24 134.77 663.35 132.75 661.00 131.00
C 662.80 132.57 665.32 135.19 667.00 137.00 Z"/>
</g>
<g fill="None" fill-opacity="0.0" stroke="#082644" stroke-opacity="1.00" stroke-width="0.3"><path d="
M 527.00 141.00 
C 527.76 139.94 529.74 139.00 531.00 139.00
C 529.54 140.36 529.42 143.22 527.00 143.00
C 527.00 143.00 527.07 143.99 527.00 144.00
C 528.74 144.53 530.54 143.73 532.00 143.00
C 534.33 139.69 528.46 135.78 527.00 141.00 Z"/>
</g>
<g fill="None" fill-opacity="0.0" stroke="#02448F" stroke-opacity="1.00" stroke-width="0.3"><path d="
M 527.00 141.00 
C 526.87 141.46 527.00 142.50 527.00 143.00
C 529.42 143.22 529.54 140.36 531.00 139.00
C 529.74 139.00 527.76 139.94 527.00 141.00 Z"/>
</g>
<g fill="None" fill-opacity="0.0" stroke="#37393B" stroke-opacity="1.00" stroke-width="0.3"><path d="
M 532.00 143.00 
C 530.54 143.73 528.74 144.53 527.00 144.00
C 526.68 145.69 524.24 143.18 525.00 146.00
C 529.42 149.82 536.75 146.30 535.00 140.00
C 532.46 139.44 533.48 142.26 532.00 143.00 Z"/>
</g>
<g fill="None" fill-opacity="0.0" stroke="#747474" stroke-opacity="1.00" stroke-width="0.3"><path d="
M 680.00 149.00 
C 680.56 150.02 680.99 151.45 682.00 152.00
C 682.79 150.46 681.25 148.90 681.00 148.00
C 681.01 148.33 679.99 148.87 680.00 149.00 Z"/>
</g>
<g fill="None" fill-opacity="0.0" stroke="#686868" stroke-opacity="1.00" stroke-width="0.3"><path d="
M 683.00 153.00 
C 680.60 158.22 686.11 159.85 683.00 153.00 Z"/>
</g>
<g fill="None" fill-opacity="0.0" stroke="#9F9F9F" stroke-opacity="1.00" stroke-width="0.3"><path d="
M 686.00 274.00 
C 686.16 274.63 687.85 276.42 688.00 277.00
C 684.97 238.75 692.09 196.52 686.00 159.00
C 688.07 197.20 683.40 235.84 686.00 274.00 Z"/>
</g>
<g fill="None" fill-opacity="0.0" stroke="#5F5F5F" stroke-opacity="1.00" stroke-width="0.3"><path d="
M 678.00 838.00 
C 683.48 807.40 677.21 773.84 679.00 742.00 C 680.79 710.16 678.25 677.09 679.00 645.00 C 679.75 612.91 678.79 580.18 679.00 548.00 C 679.21 515.82 679.20 483.17 679.00 451.00 C 678.80 418.83 679.73 386.04 679.00 354.00 C 678.27 321.96 680.76 288.73 679.00 257.00 C 677.24 225.27 683.47 192.51 678.00 162.00
C 681.81 218.03 676.57 274.83 678.00 331.00 C 679.43 387.17 678.00 443.79 678.00 500.00 C 678.00 556.21 679.43 612.83 678.00 669.00 C 676.57 725.17 681.81 781.97 678.00 838.00 Z"/>
</g>
<g fill="None" fill-opacity="0.0" stroke="#494949" stroke-opacity="1.00" stroke-width="0.3"><path d="
M 315.00 239.00 
C 313.95 231.31 312.89 217.31 314.00 209.00
C 312.92 212.10 311.71 214.76 312.00 219.00 C 312.29 223.24 312.92 226.73 312.00 231.00 C 311.08 235.27 314.27 236.71 315.00 239.00 Z"/>
</g>
<g fill="None" fill-opacity="0.0" stroke="#8E8E90" stroke-opacity="1.00" stroke-width="0.3"><path d="
M 312.00 276.00 
C 312.08 275.81 313.88 276.21 314.00 276.00
C 314.25 275.50 314.88 274.55 315.00 274.00
C 314.58 273.23 310.51 274.69 312.00 276.00 Z"/>
</g>
<g fill="None" fill-opacity="0.0" stroke="#4C4C4C" stroke-opacity="1.00" stroke-width="0.3"><path d="
M 688.00 353.00 
C 689.64 340.71 687.75 327.42 688.00 315.00 C 688.25 302.58 688.98 289.39 688.00 277.00
C 687.85 276.42 686.16 274.63 686.00 274.00
C 686.85 286.49 686.55 300.82 686.00 314.00 C 685.45 327.18 687.44 341.00 688.00 353.00 Z"/>
</g>
<g fill="None" fill-opacity="0.0" stroke="#4C4C4C" stroke-opacity="1.00" stroke-width="0.3"><path d="
M 315.00 330.00 
C 313.71 322.41 313.19 311.47 315.00 303.00 C 316.81 294.53 310.31 283.33 314.00 276.00
C 313.88 276.21 312.08 275.81 312.00 276.00
C 308.46 283.97 314.28 296.51 312.00 305.00 C 309.72 313.49 313.13 324.31 315.00 330.00 Z"/>
</g>
<g fill="None" fill-opacity="0.0" stroke="#848485" stroke-opacity="1.00" stroke-width="0.3"><path d="
M 312.00 346.00 
C 312.32 345.76 313.85 346.23 314.00 346.00
C 314.25 345.50 314.88 344.55 315.00 344.00
C 313.99 342.16 312.12 345.55 312.00 346.00 Z"/>
</g>
<g fill="None" fill-opacity="0.0" stroke="#383839" stroke-opacity="1.00" stroke-width="0.3"><path d="
M 312.00 350.00 
C 313.69 362.44 313.20 377.64 312.00 390.00
C 312.00 393.33 312.00 396.67 312.00 400.00
C 313.00 400.00 314.00 400.00 315.00 400.00
C 313.72 392.46 313.57 381.51 315.00 373.00 C 316.43 364.49 310.35 353.24 314.00 346.00
C 313.85 346.23 312.32 345.76 312.00 346.00
C 311.70 347.15 312.00 348.81 312.00 350.00 Z"/>
</g>
<g fill="None" fill-opacity="0.0" stroke="#737373" stroke-opacity="1.00" stroke-width="0.3"><path d="
M 312.00 390.00 
C 313.20 377.64 313.69 362.44 312.00 350.00
C 312.00 363.33 312.00 376.67 312.00 390.00 Z"/>
</g>
<g fill="None" fill-opacity="0.0" stroke="#494949" stroke-opacity="1.00" stroke-width="0.3"><path d="
M 684.00 840.00 
C 682.46 841.63 682.40 844.70 682.00 847.00
C 684.23 845.60 684.09 842.45 684.00 840.00 Z"/>
</g>
<g fill="None" fill-opacity="0.0" stroke="#6F6F6F" stroke-opacity="1.00" stroke-width="0.3"><path d="
M 522.00 888.00 
C 533.67 888.00 545.33 888.00 557.00 888.00
C 568.91 886.85 582.38 887.00 595.00 887.00
C 613.06 887.09 638.07 888.51 653.77 881.77 C 669.47 875.04 679.27 862.81 681.00 848.00
C 678.99 854.06 676.01 859.84 671.75 864.75 C 667.49 869.66 663.23 872.33 657.75 875.75 C 652.26 879.16 646.68 881.24 640.02 883.02 C 633.37 884.81 625.70 886.36 618.00 886.00 C 610.30 885.64 600.96 886.31 593.00 886.00 C 585.04 885.69 575.97 886.46 568.00 886.00 C 560.03 885.54 550.74 886.91 543.00 886.00 C 535.26 885.09 525.42 887.12 522.00 888.00 Z"/>
</g>
<g fill="None" fill-opacity="0.0" stroke="#7E7E7E" stroke-opacity="1.00" stroke-width="0.3"><path d="
M 661.00 869.00 
C 663.30 867.29 665.19 865.29 667.00 863.00
C 665.37 864.76 662.85 867.39 661.00 869.00 Z"/>
</g>
<g fill="None" fill-opacity="0.0" stroke="#858585" stroke-opacity="1.00" stroke-width="0.3"><path d="
M 335.00 877.00 
C 332.25 874.69 328.41 870.77 326.00 868.00
C 328.42 871.25 331.64 874.60 335.00 877.00 Z"/>
</g>
<g fill="None" fill-opacity="0.0" stroke="#565656" stroke-opacity="1.00" stroke-width="0.3"><path d="
M 361.00 887.00 
C 362.51 887.35 363.35 887.83 365.00 888.00
C 371.30 888.00 379.64 887.38 386.00 888.00
C 417.00 888.00 448.00 888.00 479.00 888.00
C 475.46 887.09 465.74 885.16 458.00 886.00 C 450.26 886.84 440.94 885.69 433.00 886.00 C 425.06 886.31 417.00 886.07 409.00 886.00 C 401.00 885.93 391.94 886.46 384.00 886.00 C 376.06 885.54 368.12 886.79 361.00 887.00 Z"/>
</g>
<g fill="None" fill-opacity="0.0" stroke="#1F1F1F" stroke-opacity="1.00" stroke-width="0.3"><path d="
M 365.00 888.00 
C 371.83 888.72 379.13 888.00 386.00 888.00
C 379.64 887.38 371.30 888.00 365.00 888.00 Z"/>
</g>
<g fill="None" fill-opacity="0.0" stroke="#484848" stroke-opacity="1.00" stroke-width="0.3"><path d="
M 557.00 888.00 
C 569.67 888.00 582.33 888.00 595.00 888.00
C 595.00 888.00 595.04 887.00 595.00 887.00
C 582.38 887.00 568.91 886.85 557.00 888.00 Z"/>
</g>
<g fill="#FEFEFE" fill-opacity="1.00" stroke="None">
<path d="
M 0.00 1000.00 
L 1000.00 1000.00
L 1000.00 0.00
L 0.00 0.00
L 0.00 1000.00
M 639.00 113.00 
C 662.33 118.22 684.53 131.99 686.00 159.00
C 692.09 196.52 684.97 238.75 688.00 277.00
C 688.98 289.39 688.25 302.58 688.00 315.00 C 687.75 327.42 689.64 340.71 688.00 353.00
C 682.63 393.26 687.41 434.67 686.00 476.00 C 684.59 517.33 687.30 560.54 686.00 602.00 C 684.70 643.46 688.07 685.65 686.00 727.00 C 683.93 768.35 691.05 810.73 684.07 851.07 C 677.10 891.42 625.70 888.00 595.00 888.00
C 582.33 888.00 569.67 888.00 557.00 888.00
C 545.33 888.00 533.67 888.00 522.00 888.00
C 507.67 888.00 493.33 888.00 479.00 888.00
C 448.00 888.00 417.00 888.00 386.00 888.00
C 379.13 888.00 371.83 888.72 365.00 888.00
C 363.35 887.83 362.51 887.35 361.00 887.00
C 351.34 884.74 343.33 882.95 335.00 877.00
C 331.64 874.60 328.42 871.25 326.00 868.00
C 313.13 850.70 314.77 832.84 315.00 811.00 C 315.23 789.16 314.95 765.39 315.00 743.00 C 315.05 720.61 315.10 696.61 315.00 674.00 C 314.90 651.39 315.33 628.69 315.00 606.00 C 314.67 583.31 315.76 559.68 315.00 537.00 C 314.24 514.32 316.73 491.55 315.00 469.00 C 313.27 446.45 318.78 422.24 315.00 400.00
C 314.00 400.00 313.00 400.00 312.00 400.00
C 312.00 396.67 312.00 393.33 312.00 390.00
C 312.00 376.67 312.00 363.33 312.00 350.00
C 312.00 348.81 311.70 347.15 312.00 346.00
C 312.12 345.55 313.99 342.16 315.00 344.00
C 315.79 340.31 315.63 333.73 315.00 330.00
C 313.13 324.31 309.72 313.49 312.00 305.00 C 314.28 296.51 308.46 283.97 312.00 276.00
C 310.51 274.69 314.58 273.23 315.00 274.00
C 317.03 264.47 316.32 248.68 315.00 239.00
C 314.27 236.71 311.08 235.27 312.00 231.00 C 312.92 226.73 312.29 223.24 312.00 219.00 C 311.71 214.76 312.92 212.10 314.00 209.00
C 317.48 182.97 309.39 154.34 326.00 132.00
C 328.46 128.70 331.70 125.36 335.00 123.00
C 336.55 121.90 338.40 121.04 340.00 120.00
C 347.73 115.01 355.82 112.73 365.00 112.00
C 372.23 111.43 379.74 112.00 387.00 112.00
C 394.33 112.00 401.67 112.00 409.00 112.00
C 458.00 112.00 507.00 112.00 556.00 112.00
C 569.00 112.00 582.00 112.00 595.00 112.00
C 602.67 112.00 610.33 112.00 618.00 112.00
C 623.93 112.00 630.10 111.49 636.00 112.00
C 637.35 112.12 638.20 112.82 639.00 113.00 Z"/>
</g>
<g fill="#6A6A6A" fill-opacity="1.00" stroke="None">
<path d="
M 340.00 120.00 
C 344.11 118.95 351.48 116.92 359.00 115.00 C 366.52 113.09 377.36 114.22 386.00 114.00 C 394.64 113.78 404.99 114.09 414.00 114.00 C 423.01 113.91 432.84 114.04 442.00 114.00 C 451.16 113.96 460.79 114.00 470.00 114.00
C 450.63 112.13 428.30 113.87 409.00 112.00
C 401.67 112.00 394.33 112.00 387.00 112.00
C 380.20 112.66 371.63 112.12 365.00 112.00
C 355.82 112.73 347.73 115.01 340.00 120.00 Z"/>
</g>
<g fill="#2D2D2D" fill-opacity="1.00" stroke="None">
<path d="
M 387.00 112.00 
C 379.74 112.00 372.23 111.43 365.00 112.00
C 371.63 112.12 380.20 112.66 387.00 112.00 Z"/>
</g>
<g fill="#898989" fill-opacity="1.00" stroke="None">
<path d="
M 470.00 114.00 
C 487.00 114.00 504.00 114.00 521.00 114.00
C 538.00 114.00 555.00 114.00 572.00 114.00
C 571.96 114.00 572.00 113.00 572.00 113.00
C 566.61 113.00 560.64 112.45 556.00 112.00
C 507.00 112.00 458.00 112.00 409.00 112.00
C 428.30 113.87 450.63 112.13 470.00 114.00 Z"/>
</g>
<g fill="#646464" fill-opacity="1.00" stroke="None">
<path d="
M 572.00 113.00 
C 579.67 113.00 587.33 113.00 595.00 113.00
C 594.96 113.00 595.00 112.00 595.00 112.00
C 582.00 112.00 569.00 112.00 556.00 112.00
C 560.64 112.45 566.61 113.00 572.00 113.00 Z"/>
</g>
<g fill="#3C3C3C" fill-opacity="1.00" stroke="None">
<path d="
M 595.00 113.00 
C 602.67 113.00 610.33 113.00 618.00 113.00
C 617.96 113.00 618.00 112.00 618.00 112.00
C 610.33 112.00 602.67 112.00 595.00 112.00
C 595.00 112.00 594.96 113.00 595.00 113.00 Z"/>
</g>
<g fill="#111111" fill-opacity="1.00" stroke="None">
<path d="
M 618.00 113.00 
C 623.20 113.00 628.84 113.63 634.00 113.00
C 635.10 112.86 635.38 112.15 636.00 112.00
C 630.10 111.49 623.93 112.00 618.00 112.00
C 618.00 112.00 617.96 113.00 618.00 113.00 Z"/>
</g>
<g fill="#4A4A4A" fill-opacity="1.00" stroke="None">
<path d="
M 634.00 113.00 
C 634.85 113.15 636.64 113.82 638.00 114.00
C 638.26 113.87 638.65 113.08 639.00 113.00
C 638.20 112.82 637.35 112.12 636.00 112.00
C 635.38 112.15 635.10 112.86 634.00 113.00 Z"/>
</g>
<g fill="#A1A1A1" fill-opacity="1.00" stroke="None">
<path d="
M 572.00 114.00 
C 588.63 114.00 605.39 113.37 622.00 114.00
C 628.47 114.25 635.65 115.91 641.67 117.33 C 647.69 118.74 652.38 121.85 657.75 124.25 C 663.11 126.66 665.89 131.27 670.75 134.25 C 675.61 137.23 675.95 146.52 680.00 149.00
C 679.99 148.87 681.01 148.33 681.00 148.00
C 675.78 129.02 656.65 116.53 638.00 114.00
C 636.64 113.82 634.85 113.15 634.00 113.00
C 628.84 113.63 623.20 113.00 618.00 113.00
C 610.33 113.00 602.67 113.00 595.00 113.00
C 587.33 113.00 579.67 113.00 572.00 113.00
C 572.00 113.00 571.96 114.00 572.00 114.00 Z"/>
</g>
<g fill="#030303" fill-opacity="1.00" stroke="None">
<path d="
M 638.00 114.00 
C 656.65 116.53 675.78 129.02 681.00 148.00
C 681.25 148.90 682.79 150.46 682.00 152.00
C 680.99 151.45 680.56 150.02 680.00 149.00
C 675.95 146.52 675.61 137.23 670.75 134.25 C 665.89 131.27 663.11 126.66 657.75 124.25 C 652.38 121.85 647.69 118.74 641.67 117.33 C 635.65 115.91 628.47 114.25 622.00 114.00
C 589.84 115.89 553.04 117.10 521.00 114.00
C 504.00 114.00 487.00 114.00 470.00 114.00
C 460.79 114.00 451.16 113.96 442.00 114.00 C 432.84 114.04 423.01 113.91 414.00 114.00 C 404.99 114.09 394.64 113.78 386.00 114.00 C 377.36 114.22 366.52 113.09 359.00 115.00 C 351.48 116.92 344.11 118.95 340.00 120.00
C 338.40 121.04 336.55 121.90 335.00 123.00
C 332.19 125.35 328.37 129.28 326.00 132.00
C 309.39 154.34 317.48 182.97 314.00 209.00
C 312.89 217.31 313.95 231.31 315.00 239.00
C 316.32 248.68 317.03 264.47 315.00 274.00
C 314.88 274.55 314.25 275.50 314.00 276.00
C 310.31 283.33 316.81 294.53 315.00 303.00 C 313.19 311.47 313.71 322.41 315.00 330.00
C 315.63 333.73 315.79 340.31 315.00 344.00
C 314.88 344.55 314.25 345.50 314.00 346.00
C 310.35 353.24 316.43 364.49 315.00 373.00 C 313.57 381.51 313.72 392.46 315.00 400.00
C 318.78 422.24 313.27 446.45 315.00 469.00 C 316.73 491.55 314.24 514.32 315.00 537.00 C 315.76 559.68 314.67 583.31 315.00 606.00 C 315.33 628.69 314.90 651.39 315.00 674.00 C 315.10 696.61 315.05 720.61 315.00 743.00 C 314.95 765.39 315.23 789.16 315.00 811.00 C 314.77 832.84 313.13 850.70 326.00 868.00
C 328.41 870.77 332.25 874.69 335.00 877.00
C 343.33 882.95 351.34 884.74 361.00 887.00
C 368.12 886.79 376.06 885.54 384.00 886.00 C 391.94 886.46 401.00 885.93 409.00 886.00 C 417.00 886.07 425.06 886.31 433.00 886.00 C 440.94 885.69 450.26 886.84 458.00 886.00 C 465.74 885.16 475.46 887.09 479.00 888.00
C 493.33 888.00 507.67 888.00 522.00 888.00
C 525.42 887.12 535.26 885.09 543.00 886.00 C 550.74 886.91 560.03 885.54 568.00 886.00 C 575.97 886.46 585.04 885.69 593.00 886.00 C 600.96 886.31 610.30 885.64 618.00 886.00 C 625.70 886.36 633.37 884.81 640.02 883.02 C 646.68 881.24 652.26 879.16 657.75 875.75 C 663.23 872.33 667.49 869.66 671.75 864.75 C 676.01 859.84 678.99 854.06 681.00 848.00
C 679.27 862.81 669.47 875.04 653.77 881.77 C 638.07 888.51 613.06 887.09 595.00 887.00
C 595.04 887.00 595.00 888.00 595.00 888.00
C 625.70 888.00 677.10 891.42 684.07 851.07 C 691.05 810.73 683.93 768.35 686.00 727.00 C 688.07 685.65 684.70 643.46 686.00 602.00 C 687.30 560.54 684.59 517.33 686.00 476.00 C 687.41 434.67 682.63 393.26 688.00 353.00
C 687.44 341.00 685.45 327.18 686.00 314.00 C 686.55 300.82 686.85 286.49 686.00 274.00
C 683.40 235.84 688.07 197.20 686.00 159.00
C 684.53 131.99 662.33 118.22 639.00 113.00
C 638.65 113.08 638.26 113.87 638.00 114.00
M 661.00 131.00 
C 663.35 132.75 665.24 134.77 667.00 137.00
C 672.71 144.24 677.37 152.71 678.00 162.00
C 683.47 192.51 677.24 225.27 679.00 257.00 C 680.76 288.73 678.27 321.96 679.00 354.00 C 679.73 386.04 678.80 418.83 679.00 451.00 C 679.20 483.17 679.21 515.82 679.00 548.00 C 678.79 580.18 679.75 612.91 679.00 645.00 C 678.25 677.09 680.79 710.16 679.00 742.00 C 677.21 773.84 683.48 807.40 678.00 838.00
C 677.37 847.25 672.69 855.79 667.00 863.00
C 665.19 865.29 663.30 867.29 661.00 869.00
C 636.71 887.06 604.81 878.59 575.00 880.00 C 545.19 881.41 507.84 879.20 478.00 880.00 C 448.16 880.80 409.20 879.27 381.00 880.00 C 352.80 880.73 327.68 870.11 323.67 840.33 C 319.67 810.54 324.36 774.30 323.00 743.00 C 321.64 711.70 323.57 677.83 323.00 646.00 C 322.43 614.17 323.15 581.04 323.00 549.00 C 322.85 516.96 322.83 484.04 323.00 452.00 C 323.17 419.96 322.39 386.85 323.00 355.00 C 323.61 323.15 321.57 288.24 323.00 257.00 C 324.43 225.76 319.61 189.99 323.33 160.33 C 327.05 130.67 351.89 119.41 380.00 120.00 C 408.11 120.59 447.17 119.24 477.00 120.00 C 506.83 120.76 544.11 118.57 574.00 120.00 C 603.89 121.43 636.59 112.85 661.00 131.00
M 683.00 153.00 
C 686.11 159.85 680.60 158.22 683.00 153.00
M 684.00 840.00 
C 684.09 842.45 684.23 845.60 682.00 847.00
C 682.40 844.70 682.46 841.63 684.00 840.00 Z"/>
</g>
<g fill="#292929" fill-opacity="1.00" stroke="None">
<path d="
M 622.00 114.00 
C 605.39 113.37 588.63 114.00 572.00 114.00
C 555.00 114.00 538.00 114.00 521.00 114.00
C 553.04 117.10 589.84 115.89 622.00 114.00 Z"/>
</g>
<g fill="#FEFEFE" fill-opacity="1.00" stroke="None">
<path d="
M 661.00 869.00 
C 662.85 867.39 665.37 864.76 667.00 863.00
C 672.69 855.79 677.37 847.25 678.00 838.00
C 681.81 781.97 676.57 725.17 678.00 669.00 C 679.43 612.83 678.00 556.21 678.00 500.00 C 678.00 443.79 679.43 387.17 678.00 331.00 C 676.57 274.83 681.81 218.03 678.00 162.00
C 677.37 152.71 672.71 144.24 667.00 137.00
C 665.32 135.19 662.80 132.57 661.00 131.00
C 636.59 112.85 603.89 121.43 574.00 120.00 C 544.11 118.57 506.83 120.76 477.00 120.00 C 447.17 119.24 408.11 120.59 380.00 120.00 C 351.89 119.41 327.05 130.67 323.33 160.33 C 319.61 189.99 324.43 225.76 323.00 257.00 C 321.57 288.24 323.61 323.15 323.00 355.00 C 322.39 386.85 323.17 419.96 323.00 452.00 C 322.83 484.04 322.85 516.96 323.00 549.00 C 323.15 581.04 322.43 614.17 323.00 646.00 C 323.57 677.83 321.64 711.70 323.00 743.00 C 324.36 774.30 319.67 810.54 323.67 840.33 C 327.68 870.11 352.80 880.73 381.00 880.00 C 409.20 879.27 448.16 880.80 478.00 880.00 C 507.84 879.20 545.19 881.41 575.00 880.00 C 604.81 878.59 636.71 887.06 661.00 869.00
M 537.00 128.00 
C 550.16 131.26 550.12 153.98 535.98 154.98 C 521.83 155.97 501.34 154.20 488.00 155.00 C 474.66 155.80 452.04 157.92 453.00 141.00 C 453.97 124.08 475.07 126.80 488.00 128.00 C 500.93 129.20 523.81 124.73 537.00 128.00 Z"/>
</g>
<g fill="#868686" fill-opacity="1.00" stroke="None">
<path d="
M 326.00 132.00 
C 328.37 129.28 332.19 125.35 335.00 123.00
C 331.70 125.36 328.46 128.70 326.00 132.00 Z"/>
</g>
<g fill="#000000" fill-opacity="1.00" stroke="None">
<path d="
M 537.00 128.00 
C 523.81 124.73 500.93 129.20 488.00 128.00 C 475.07 126.80 453.97 124.08 453.00 141.00 C 452.04 157.92 474.66 155.80 488.00 155.00 C 501.34 154.20 521.83 155.97 535.98 154.98 C 550.12 153.98 550.16 131.26 537.00 128.00
M 532.00 143.00 
C 533.48 142.26 532.46 139.44 535.00 140.00
C 536.75 146.30 529.42 149.82 525.00 146.00
C 524.24 143.18 526.68 145.69 527.00 144.00
C 527.07 143.99 527.00 143.00 527.00 143.00
C 527.00 142.50 526.87 141.46 527.00 141.00
C 528.46 135.78 534.33 139.69 532.00 143.00 Z"/>
</g>
<g fill="#7E7E7E" fill-opacity="1.00" stroke="None">
<path d="
M 667.00 137.00 
C 665.24 134.77 663.35 132.75 661.00 131.00
C 662.80 132.57 665.32 135.19 667.00 137.00 Z"/>
</g>
<g fill="#082644" fill-opacity="1.00" stroke="None">
<path d="
M 527.00 141.00 
C 527.76 139.94 529.74 139.00 531.00 139.00
C 529.54 140.36 529.42 143.22 527.00 143.00
C 527.00 143.00 527.07 143.99 527.00 144.00
C 528.74 144.53 530.54 143.73 532.00 143.00
C 534.33 139.69 528.46 135.78 527.00 141.00 Z"/>
</g>
<g fill="#02448F" fill-opacity="1.00" stroke="None">
<path d="
M 527.00 141.00 
C 526.87 141.46 527.00 142.50 527.00 143.00
C 529.42 143.22 529.54 140.36 531.00 139.00
C 529.74 139.00 527.76 139.94 527.00 141.00 Z"/>
</g>
<g fill="#37393B" fill-opacity="1.00" stroke="None">
<path d="
M 532.00 143.00 
C 530.54 143.73 528.74 144.53 527.00 144.00
C 526.68 145.69 524.24 143.18 525.00 146.00
C 529.42 149.82 536.75 146.30 535.00 140.00
C 532.46 139.44 533.48 142.26 532.00 143.00 Z"/>
</g>
<g fill="#747474" fill-opacity="1.00" stroke="None">
<path d="
M 680.00 149.00 
C 680.56 150.02 680.99 151.45 682.00 152.00
C 682.79 150.46 681.25 148.90 681.00 148.00
C 681.01 148.33 679.99 148.87 680.00 149.00 Z"/>
</g>
<g fill="#686868" fill-opacity="1.00" stroke="None">
<path d="
M 683.00 153.00 
C 680.60 158.22 686.11 159.85 683.00 153.00 Z"/>
</g>
<g fill="#9F9F9F" fill-opacity="1.00" stroke="None">
<path d="
M 686.00 274.00 
C 686.16 274.63 687.85 276.42 688.00 277.00
C 684.97 238.75 692.09 196.52 686.00 159.00
C 688.07 197.20 683.40 235.84 686.00 274.00 Z"/>
</g>
<g fill="#5F5F5F" fill-opacity="1.00" stroke="None">
<path d="
M 678.00 838.00 
C 683.48 807.40 677.21 773.84 679.00 742.00 C 680.79 710.16 678.25 677.09 679.00 645.00 C 679.75 612.91 678.79 580.18 679.00 548.00 C 679.21 515.82 679.20 483.17 679.00 451.00 C 678.80 418.83 679.73 386.04 679.00 354.00 C 678.27 321.96 680.76 288.73 679.00 257.00 C 677.24 225.27 683.47 192.51 678.00 162.00
C 681.81 218.03 676.57 274.83 678.00 331.00 C 679.43 387.17 678.00 443.79 678.00 500.00 C 678.00 556.21 679.43 612.83 678.00 669.00 C 676.57 725.17 681.81 781.97 678.00 838.00 Z"/>
</g>
<g fill="#494949" fill-opacity="1.00" stroke="None">
<path d="
M 315.00 239.00 
C 313.95 231.31 312.89 217.31 314.00 209.00
C 312.92 212.10 311.71 214.76 312.00 219.00 C 312.29 223.24 312.92 226.73 312.00 231.00 C 311.08 235.27 314.27 236.71 315.00 239.00 Z"/>
</g>
<g fill="#8E8E90" fill-opacity="1.00" stroke="None">
<path d="
M 312.00 276.00 
C 312.08 275.81 313.88 276.21 314.00 276.00
C 314.25 275.50 314.88 274.55 315.00 274.00
C 314.58 273.23 310.51 274.69 312.00 276.00 Z"/>
</g>
<g fill="#4C4C4C" fill-opacity="1.00" stroke="None">
<path d="
M 688.00 353.00 
C 689.64 340.71 687.75 327.42 688.00 315.00 C 688.25 302.58 688.98 289.39 688.00 277.00
C 687.85 276.42 686.16 274.63 686.00 274.00
C 686.85 286.49 686.55 300.82 686.00 314.00 C 685.45 327.18 687.44 341.00 688.00 353.00 Z"/>
</g>
<g fill="#4C4C4C" fill-opacity="1.00" stroke="None">
<path d="
M 315.00 330.00 
C 313.71 322.41 313.19 311.47 315.00 303.00 C 316.81 294.53 310.31 283.33 314.00 276.00
C 313.88 276.21 312.08 275.81 312.00 276.00
C 308.46 283.97 314.28 296.51 312.00 305.00 C 309.72 313.49 313.13 324.31 315.00 330.00 Z"/>
</g>
<g fill="#848485" fill-opacity="1.00" stroke="None">
<path d="
M 312.00 346.00 
C 312.32 345.76 313.85 346.23 314.00 346.00
C 314.25 345.50 314.88 344.55 315.00 344.00
C 313.99 342.16 312.12 345.55 312.00 346.00 Z"/>
</g>
<g fill="#383839" fill-opacity="1.00" stroke="None">
<path d="
M 312.00 350.00 
C 313.69 362.44 313.20 377.64 312.00 390.00
C 312.00 393.33 312.00 396.67 312.00 400.00
C 313.00 400.00 314.00 400.00 315.00 400.00
C 313.72 392.46 313.57 381.51 315.00 373.00 C 316.43 364.49 310.35 353.24 314.00 346.00
C 313.85 346.23 312.32 345.76 312.00 346.00
C 311.70 347.15 312.00 348.81 312.00 350.00 Z"/>
</g>
<g fill="#737373" fill-opacity="1.00" stroke="None">
<path d="
M 312.00 390.00 
C 313.20 377.64 313.69 362.44 312.00 350.00
C 312.00 363.33 312.00 376.67 312.00 390.00 Z"/>
</g>
<g fill="#494949" fill-opacity="1.00" stroke="None">
<path d="
M 684.00 840.00 
C 682.46 841.63 682.40 844.70 682.00 847.00
C 684.23 845.60 684.09 842.45 684.00 840.00 Z"/>
</g>
<g fill="#6F6F6F" fill-opacity="1.00" stroke="None">
<path d="
M 522.00 888.00 
C 533.67 888.00 545.33 888.00 557.00 888.00
C 568.91 886.85 582.38 887.00 595.00 887.00
C 613.06 887.09 638.07 888.51 653.77 881.77 C 669.47 875.04 679.27 862.81 681.00 848.00
C 678.99 854.06 676.01 859.84 671.75 864.75 C 667.49 869.66 663.23 872.33 657.75 875.75 C 652.26 879.16 646.68 881.24 640.02 883.02 C 633.37 884.81 625.70 886.36 618.00 886.00 C 610.30 885.64 600.96 886.31 593.00 886.00 C 585.04 885.69 575.97 886.46 568.00 886.00 C 560.03 885.54 550.74 886.91 543.00 886.00 C 535.26 885.09 525.42 887.12 522.00 888.00 Z"/>
</g>
<g fill="#7E7E7E" fill-opacity="1.00" stroke="None">
<path d="
M 661.00 869.00 
C 663.30 867.29 665.19 865.29 667.00 863.00
C 665.37 864.76 662.85 867.39 661.00 869.00 Z"/>
</g>
<g fill="#858585" fill-opacity="1.00" stroke="None">
<path d="
M 335.00 877.00 
C 332.25 874.69 328.41 870.77 326.00 868.00
C 328.42 871.25 331.64 874.60 335.00 877.00 Z"/>
</g>
<g fill="#565656" fill-opacity="1.00" stroke="None">
<path d="
M 361.00 887.00 
C 362.51 887.35 363.35 887.83 365.00 888.00
C 371.30 888.00 379.64 887.38 386.00 888.00
C 417.00 888.00 448.00 888.00 479.00 888.00
C 475.46 887.09 465.74 885.16 458.00 886.00 C 450.26 886.84 440.94 885.69 433.00 886.00 C 425.06 886.31 417.00 886.07 409.00 886.00 C 401.00 885.93 391.94 886.46 384.00 886.00 C 376.06 885.54 368.12 886.79 361.00 887.00 Z"/>
</g>
<g fill="#1F1F1F" fill-opacity="1.00" stroke="None">
<path d="
M 365.00 888.00 
C 371.83 888.72 379.13 888.00 386.00 888.00
C 379.64 887.38 371.30 888.00 365.00 888.00 Z"/>
</g>
<g fill="#484848" fill-opacity="1.00" stroke="None">
<path d="
M 557.00 888.00 
C 569.67 888.00 582.33 888.00 595.00 888.00
C 595.00 888.00 595.04 887.00 595.00 887.00
C 582.38 887.00 568.91 886.85 557.00 888.00 Z"/>
</g>
</svg>